<svg width="932" height="1024" viewBox="0 0 932 1024" fill="none" xmlns="http://www.w3.org/2000/svg">
<rect width="932" height="1024" fill="#1E1E1E"/>
<g id="Simplification">
<g id="trunk">
<g id="Group 3">
<g id="Group 2">
<path id="Vector" d="M344.226 451C430.952 451 517.679 451 607.033 451C607.033 466.178 607.033 481.356 607.033 496.994C606.379 497.654 605.724 498.314 605.05 498.994C605.05 498.334 605.05 497.674 605.05 496.994C569.377 497.324 533.705 497.654 496.951 497.994C502.351 504.428 502.351 504.428 507.86 510.992C519.206 526.308 532.654 548.205 532.654 567.985C533.571 567.983 534.488 567.981 535.433 567.978C544.058 567.958 552.683 567.943 561.308 567.933C565.743 567.928 570.177 567.921 574.612 567.91C578.888 567.899 583.164 567.893 587.44 567.89C589.075 567.888 590.71 567.885 592.345 567.879C594.628 567.872 596.91 567.871 599.192 567.872C601.144 567.868 601.144 567.868 603.136 567.865C606.041 567.985 606.041 567.985 607.033 568.985C607.149 570.35 607.199 571.72 607.221 573.089C607.238 573.961 607.254 574.832 607.271 575.729C607.285 576.677 607.298 577.624 607.312 578.601C607.33 579.569 607.349 580.537 607.367 581.534C607.426 584.642 607.478 587.749 607.529 590.857C607.596 594.938 607.669 599.018 607.746 603.098C607.766 604.513 607.766 604.513 607.787 605.958C607.803 606.835 607.82 607.712 607.837 608.616C607.849 609.388 607.862 610.16 607.875 610.955C607.958 613.184 607.958 613.184 609.017 615.979C601.224 617.263 593.428 617.105 585.556 617.077C584.055 617.075 582.555 617.073 581.054 617.072C577.128 617.068 573.202 617.059 569.277 617.048C565.261 617.037 561.245 617.033 557.23 617.028C549.368 617.017 541.507 617 533.645 616.979C533.453 617.837 533.453 617.837 533.256 618.712C530.838 629.406 528.411 639.954 524.534 650.225C524.194 651.171 523.855 652.117 523.505 653.092C521.023 659.837 521.023 659.837 518.769 660.973C518.09 662.632 517.433 664.301 516.786 665.973C509.99 678.245 501.453 688.678 491.993 698.968C491.47 699.561 490.947 700.154 490.408 700.765C471.631 721.101 441.708 734.624 414.638 737.964C418.979 743.2 423.546 748.08 428.345 752.889C429.107 753.657 429.869 754.425 430.655 755.217C433.197 757.777 435.742 760.333 438.288 762.889C440.116 764.729 441.944 766.569 443.772 768.409C447.701 772.364 451.631 776.317 455.563 780.269C461.248 785.984 466.93 791.702 472.61 797.422C481.829 806.705 491.049 815.986 500.271 825.266C500.823 825.82 501.374 826.375 501.942 826.947C509.78 834.833 517.619 842.718 525.458 850.602C526.288 851.436 526.288 851.436 527.134 852.288C527.687 852.843 528.239 853.399 528.808 853.971C538.006 863.221 547.2 872.475 556.39 881.733C562.06 887.443 567.732 893.149 573.409 898.852C577.749 903.212 582.084 907.578 586.418 911.946C588.201 913.742 589.985 915.535 591.772 917.327C594.199 919.763 596.621 922.204 599.041 924.647C599.758 925.364 600.476 926.081 601.215 926.82C601.858 927.471 602.5 928.122 603.162 928.792C603.722 929.356 604.282 929.919 604.859 930.5C606.041 931.939 606.041 931.939 606.041 933.939C606.675 934.207 607.31 934.475 607.963 934.751C610.008 935.938 610.008 935.938 611 938.938C547.935 946.859 547.935 946.859 524.703 928.918C514.569 920.407 505.492 910.745 496.642 900.91C491.549 895.266 486.251 889.834 480.938 884.401C471.476 874.715 462.179 864.885 452.98 854.946C444.077 845.328 435.1 835.791 426.016 826.346C425.452 825.759 424.888 825.173 424.307 824.568C421.474 821.624 418.64 818.681 415.805 815.738C398.157 797.416 380.628 778.984 363.267 760.385C362.396 759.453 361.525 758.522 360.628 757.562C358.215 754.978 355.805 752.391 353.397 749.802C352.337 748.665 352.337 748.665 351.255 747.506C350.292 746.467 350.292 746.467 349.31 745.408C348.755 744.811 348.2 744.214 347.628 743.599C344.817 740.359 343.978 738.434 344 734.217C344.001 733.257 344.001 732.296 344.001 731.306C344.011 730.272 344.021 729.237 344.032 728.172C344.035 727.111 344.038 726.05 344.04 724.957C344.052 721.564 344.076 718.172 344.102 714.779C344.112 712.48 344.121 710.182 344.129 707.883C344.151 702.245 344.184 696.607 344.226 690.969C347.169 690.109 349.745 689.86 352.805 689.904C353.716 689.913 354.628 689.923 355.568 689.933C356.551 689.948 357.534 689.962 358.548 689.977C360.663 689.995 362.779 690.012 364.895 690.028C368.204 690.059 371.513 690.094 374.822 690.141C407.429 690.58 434.904 684.984 459.266 661.973C467.455 653.813 473.222 644.481 477.861 633.914C478.28 632.96 478.28 632.96 478.707 631.987C480.945 626.694 482.393 621.579 484.059 615.979C438.896 615.979 393.733 615.979 347.201 615.979C347.201 616.969 347.201 617.959 347.201 618.979C345.217 617.979 345.217 617.979 344.226 615.979C344.132 614.473 344.099 612.963 344.097 611.454C344.094 610.516 344.091 609.579 344.088 608.613C344.09 607.599 344.092 606.584 344.094 605.539C344.093 604.501 344.092 603.463 344.091 602.394C344.09 600.198 344.092 598.001 344.096 595.805C344.102 592.43 344.096 589.055 344.09 585.68C344.091 583.551 344.092 581.422 344.094 579.292C344.092 578.276 344.09 577.259 344.088 576.212C344.091 575.278 344.094 574.343 344.097 573.381C344.098 572.554 344.099 571.728 344.1 570.876C344.226 568.985 344.226 568.985 345.217 567.985C346.987 567.889 348.76 567.863 350.532 567.865C351.685 567.864 352.838 567.862 354.026 567.861C355.94 567.866 355.94 567.866 357.893 567.872C359.242 567.872 360.59 567.872 361.939 567.871C365.61 567.871 369.282 567.877 372.954 567.884C376.787 567.89 380.62 567.891 384.453 567.892C391.716 567.895 398.98 567.903 406.243 567.913C414.51 567.924 422.777 567.93 431.044 567.935C448.055 567.945 465.065 567.963 482.076 567.985C481.013 565.302 479.943 562.622 478.868 559.943C478.572 559.194 478.276 558.444 477.972 557.672C468.152 533.312 448.033 515.421 424.527 504.8C411.929 499.602 399.683 497.873 386.161 497.678C384.36 497.646 384.36 497.646 382.522 497.615C378.703 497.55 374.883 497.49 371.064 497.432C368.468 497.388 365.872 497.345 363.276 497.301C356.926 497.193 350.576 497.094 344.226 496.994C344.226 481.816 344.226 466.638 344.226 451Z" fill="#4276BB"/>
</g>
</g>
</g>
<path id="leaf-9" d="M55 296C68.7137 297.847 82.3968 299.86 95.7773 303.449C97.9419 304.08 97.9419 304.08 100 304C100 304.66 100 305.32 100 306C101.155 306.33 102.31 306.66 103.5 307C136.165 317.991 160.363 343.766 175.629 373.906C179.256 381.417 181.882 389.301 184.403 397.239C184.981 399.076 184.981 399.076 186 401C186.378 403.584 186.708 406.156 187 408.75C187.087 409.503 187.174 410.257 187.263 411.033C188.045 418.01 188.578 424.992 189 432C179.091 436.954 156.672 429.065 146.308 425.777C127.741 419.523 112.111 410.587 98 397C96.7998 396.011 95.5924 395.03 94.375 394.062C89.5794 389.988 85.8415 384.951 82 380C81.3168 379.132 80.6336 378.265 79.9297 377.371C65.2626 358.074 54.6625 332.04 54.9375 307.562C54.9465 306.512 54.9555 305.461 54.9648 304.379C54.9764 303.594 54.988 302.809 55 302C54.34 301.67 53.68 301.34 53 301C53.66 299.35 54.32 297.7 55 296Z" fill="#3E97CC"/>
<path id="leaf-16" d="M847.41 471.414C849.883 472.074 849.883 472.074 852 472C852 472.66 852 473.32 852 474C852.536 474.124 853.072 474.248 853.625 474.375C872.216 479.267 887.42 490.973 902 503C893.244 521.252 868.952 533.679 850.562 540.312C838.365 544.515 825.881 546.455 813 547C812.098 547.053 811.195 547.106 810.266 547.16C780.461 548.128 750.434 537.414 728.5 517.25C726.654 515.513 724.819 513.765 723 512C722.206 511.314 721.412 510.628 720.594 509.922C719 508 719 508 718.961 506.039C727.123 490.022 753.6 478.762 769.625 473.188C795.268 465.154 821.365 465.275 847.41 471.414Z" fill="#466FB6"/>
<path id="leaf-4" d="M607.941 263.902C609.734 263.92 609.734 263.92 611.563 263.938C613.359 263.951 613.359 263.951 615.191 263.965C616.118 263.976 617.045 263.988 618 264C623.634 284.901 610.929 314.551 601.109 332.445C599.499 335.05 597.816 337.535 596 340C595.448 340.759 594.897 341.519 594.328 342.301C592.607 344.586 590.828 346.8 589 349C588.345 349.79 587.69 350.58 587.016 351.395C564.734 377.213 532.508 392.416 499 397C495.942 397.183 493.063 397.164 490 397C490 397.99 490 398.98 490 400C489.34 400 488.68 400 488 400C481.985 387.97 490.779 362.993 494.625 350.938C499.773 335.778 507.661 322.176 518 310C519.052 308.739 519.052 308.739 520.125 307.453C540.636 283.578 569.838 271.245 600.16 265.762C603.77 265.046 604.502 264.017 607.941 263.902Z" fill="#3F7DC0"/>
<path id="leaf-13" d="M681 110C680.214 146.943 669.216 176.7 642.738 203.27C631.426 213.946 618.089 221.603 604 228C602.969 228.472 601.938 228.944 600.875 229.43C586.515 235.45 570.413 238.238 555 240C552.859 236.788 552.771 236.345 553.102 232.746C553.177 231.901 553.253 231.055 553.331 230.184C553.428 229.278 553.525 228.371 553.625 227.438C553.771 226.03 553.771 226.03 553.919 224.595C557.586 191.786 571.514 161.133 597.125 139.5C618.093 123.011 653.109 103.383 681 110Z" fill="#3E83C3"/>
<path id="leaf-14" d="M789 195C789.99 195.495 789.99 195.495 791 196C792.481 229.614 780.284 261.902 757.965 286.816C734.84 311.961 700.914 326.878 666.957 328.922C665.988 328.961 665.988 328.961 665 329C663.952 300.519 671.874 270.447 690 248C690.817 246.986 691.635 245.971 692.477 244.926C709.801 223.758 731.163 210.349 757 202C756.505 201.01 756.505 201.01 756 200C757.063 200.04 758.127 200.08 759.223 200.121C765.056 200.12 770.705 199.058 776.437 198.062C777.538 197.88 778.638 197.698 779.771 197.51C784.756 197.084 784.756 197.084 789 195Z" fill="#417ABE"/>
<path id="leaf-12" d="M472 108C476.978 110.181 479.636 113.848 483 118C484.075 119.321 484.075 119.321 485.172 120.668C506.463 147.869 513.13 181.699 509.623 215.652C506.515 238.89 498.604 261.236 483 279C482.251 279.86 481.502 280.72 480.73 281.605C476.909 285.724 476.909 285.724 475 287C471.635 286.653 469.505 285.237 467 283C467 282.34 467 281.68 467 281C466.34 281 465.68 281 465 281C442.9 255.047 435.995 225.153 435.875 191.75C435.87 190.617 435.865 189.484 435.861 188.317C435.863 187.258 435.865 186.2 435.867 185.109C435.868 184.15 435.869 183.191 435.871 182.202C436 180 436 180 437 179C437.378 176.941 437.751 174.88 438.103 172.816C442.611 147.036 454.441 127.072 472 108Z" fill="#3E85C3"/>
<path id="leaf-11" d="M265 107C266.513 107.101 268.021 107.279 269.523 107.488C270.458 107.617 271.392 107.745 272.355 107.877C273.351 108.021 274.348 108.164 275.375 108.312C276.877 108.525 276.877 108.525 278.409 108.742C295.204 111.148 295.204 111.148 298 112C298.495 112.99 298.495 112.99 299 114C300.774 114.522 300.774 114.522 302.918 114.836C308.466 115.965 313.245 118.15 318.312 120.625C319.237 121.073 320.161 121.521 321.113 121.983C351.783 137.121 374.298 163.051 385.566 195.32C389.876 208.598 392.688 223.018 392 237C357.511 234.179 327.358 223 302 199C301.227 198.279 300.453 197.559 299.656 196.816C276.726 174.789 264.74 142.511 263.895 111.078C264 108 264 108 265 107Z" fill="#3E93CA"/>
<path id="leaf-15" d="M892 303C894.085 333.691 881.014 365.29 861.25 388.299C844.772 406.991 822.321 419.79 798 425C797.065 425.223 796.131 425.446 795.168 425.676C789.682 426.914 784.62 427.181 779 427C778.505 427.99 778.505 427.99 778 429C778 428.34 778 427.68 778 427C776.02 427.495 776.02 427.495 774 428C768.511 412.408 779.389 386.098 786.016 372C791.536 360.786 798.539 351.163 807 342C808.255 340.639 808.255 340.639 809.535 339.25C829.749 318.235 862.486 303 892 303Z" fill="#4472B8"/>
<path id="leaf-17" d="M786 586C807.663 587.691 827.49 595.67 844 610C845.21 611.013 845.21 611.013 846.445 612.047C871.267 633.453 883.788 665.199 886.312 697.312C887.562 714.555 887.562 714.555 886 721C857.507 717.731 831.126 703.934 812.465 682.023C810.2 679.078 808.079 676.079 806 673C804.987 671.561 804.987 671.561 803.953 670.094C794.351 655.654 785.965 635.601 787 618C786.01 617.67 785.02 617.34 784 617C784.66 617 785.32 617 786 617C785.838 615.881 785.675 614.762 785.508 613.609C784.91 608.814 784.852 604.077 784.875 599.25C784.871 598.413 784.867 597.577 784.863 596.715C784.865 595.907 784.866 595.098 784.867 594.266C784.868 593.541 784.869 592.817 784.871 592.071C785.004 589.939 785.418 588.051 786 586Z" fill="#476CB3"/>
<path id="leaf-6" d="M690.628 558.57C717.156 571.887 735.946 596.319 745.461 624.035C750.038 638.213 752.204 652.694 752.062 667.562C752.058 668.476 752.053 669.389 752.049 670.33C752.037 672.553 752.021 674.777 752 677C748.552 678.149 747.252 677.81 743.766 676.996C742.724 676.753 741.682 676.51 740.608 676.26C738.946 675.853 738.946 675.853 737.25 675.438C736.118 675.161 734.987 674.884 733.821 674.599C715.503 669.982 700.471 662.213 686 650C685.376 649.51 684.752 649.02 684.109 648.516C663.217 631.764 650.922 601.823 647.827 575.853C646.863 566.133 646.983 556.713 648 547C659.251 543.25 680.019 553.549 690.628 558.57Z" fill="#456FB6"/>
<path id="leaf-8" d="M138.875 471.625C139.688 471.623 140.501 471.621 141.339 471.619C143.682 471.62 146.024 471.638 148.367 471.664C149.077 471.666 149.787 471.669 150.518 471.671C154.216 471.742 156.825 472.09 160 474C161.723 474.509 163.448 475.016 165.179 475.497C173.955 477.968 181.609 481.672 189.551 486.109C192.84 488.046 192.84 488.046 196 489C197.18 490.146 198.355 491.3 199.492 492.488C201.193 494.193 202.984 495.746 204.812 497.312C212.051 503.613 218.285 510.285 224 518C222.513 522.442 219.098 524.154 215.25 526.375C214.578 526.768 213.906 527.161 213.214 527.565C186.624 542.797 155.13 548.606 125.184 541.035C104.53 535.24 80.281 523.422 68 505C67.01 504.34 66.02 503.68 65 503C63.8125 500.375 63.8125 500.375 63 498C74.9824 488.519 87.3151 480.663 102 476C103.172 475.607 104.344 475.214 105.551 474.809C116.494 471.576 127.562 471.628 138.875 471.625Z" fill="#3E8CC8"/>
<path id="leaf-3" d="M324 267C356.972 267.96 386.916 282.536 410 306C430.009 327.745 442.415 358.326 442 388C424.384 386.616 408.739 384.277 392.71 376.554C390.83 375.653 388.917 374.82 387 374C386.01 374.495 386.01 374.495 385 375C385 374.01 385 373.02 385 372C384.27 371.733 383.541 371.466 382.789 371.191C371.102 366.199 359.722 355.978 352 346C351.219 344.993 350.438 343.986 349.633 342.949C333.181 321.137 323.565 294.415 324 267Z" fill="#3E87C4"/>
<path id="leaf-5" d="M740 358C740.517 385.44 731.208 412.68 714 434C713.579 434.524 713.158 435.049 712.724 435.589C694.336 458.022 665.618 471.888 637 475C633.003 475.391 629.007 475.73 625 476C624.075 457.835 627.165 440.466 635 424C635.449 423.053 635.449 423.053 635.907 422.087C640.246 413.076 645.357 405.53 652 398C652.983 396.774 653.963 395.545 654.938 394.312C655.618 393.549 656.299 392.786 657 392C657.66 392 658.32 392 659 392C659 391.34 659 390.68 659 390C680.729 370.385 710.501 358 740 358Z" fill="#4375BB"/>
<path id="leaf-7" d="M183 577C183.708 608.028 172.464 636.949 151.361 659.684C132.672 679.015 104.065 693.078 77.043 694.113C74.6905 694.123 72.3504 694.094 70 694C69.505 694.99 69.505 694.99 69 696C64.1391 686.278 71.1359 666.571 74.3164 656.828C85.2215 625.392 107.101 601.301 136.988 586.703C147.624 581.976 159.364 578.842 170.883 577.324C175.637 576.596 177.923 576.263 183 577Z" fill="#3F8AC7"/>
<path id="leaf-10" d="M155 196C180.967 198.624 209.572 206.537 229 225C229.963 225.829 230.926 226.658 231.918 227.512C257.567 249.807 267.449 278.754 271.842 311.58C272 314 272 314 271 316C250.542 313.658 232.004 309.219 214 299C213.018 298.446 212.035 297.891 211.023 297.32C203.346 292.696 196.667 286.948 190 281C189.331 280.404 188.662 279.809 187.973 279.195C169.763 261.971 156.242 234.896 154.88 209.785C154.76 205.185 154.837 200.599 155 196Z" fill="#3E95CB"/>
<path id="leaf-2" d="M211 365C239.273 364.529 266.936 375.301 288 394C288.856 394.675 289.712 395.351 290.594 396.047C315.033 415.884 323.692 448.322 326.804 478.067C326.869 478.705 326.933 479.343 327 480C311.807 485.064 287.731 474.208 274 468C273.263 467.673 272.525 467.345 271.766 467.008C266.668 464.617 262.395 461.494 258 458C257.193 457.379 256.386 456.757 255.555 456.117C229.759 436.001 215.574 407.744 211.558 375.518C211.15 371.994 210.911 368.547 211 365Z" fill="#3E8AC6"/>
<path id="leaf-1" d="M324 545C325.622 571.731 315.785 600.565 298.049 620.625C279.062 641.465 255.309 654.016 227 657C224.667 657.028 222.333 657.035 220 657C218.182 626.491 231.174 598.941 250.813 576.312C259.651 566.834 270.486 559.82 282 554C282.66 554 283.32 554 284 554C284.33 553.34 284.66 552.68 285 552C288.233 550.705 291.64 549.905 295 549C295.926 548.74 296.851 548.479 297.805 548.211C319.032 542.516 319.032 542.516 324 545Z" fill="#3F82C2"/>
<path id="Vector_2" d="M146 661C146.495 662.485 146.495 662.485 147 664C125.24 681.639 98.7115 695.143 70 694C69.67 694.66 69.34 695.32 69 696C65.0009 688.002 70.1209 672.332 72 664C72.66 664 73.32 664 74 664C74.33 663.34 74.66 662.68 75 662C74.6124 666.406 74.1288 670.538 72.9375 674.812C71.4841 680.12 71.8363 685.544 72 691C83.4275 690.31 94.261 689.096 105 685C105.59 684.782 106.18 684.565 106.789 684.341C121.19 678.988 134.991 671.936 146 661Z" fill="#407FB7"/>
<path id="Vector_3" d="M359 151C374.748 166.162 383.945 187.006 389 208C389.365 209.452 389.365 209.452 389.738 210.934C391.475 218.883 391.183 226.91 391 235C390.67 235 390.34 235 390 235C389.9 234.215 389.8 233.429 389.696 232.62C389.227 228.995 388.738 225.373 388.25 221.75C388.093 220.515 387.935 219.28 387.773 218.008C386.67 209.944 384.86 202.614 382 195C381.751 194.303 381.502 193.605 381.245 192.887C376.63 180.103 370.628 168.415 361.566 158.184C359.826 155.757 359.367 153.938 359 151Z" fill="#3D86BD"/>
<path id="Vector_4" d="M789 195C789.66 195.33 790.32 195.66 791 196C791.862 215.568 787.971 235.111 780 253C779.34 253 778.68 253 778 253C778.72 248.76 780.024 244.798 781.438 240.75C784.827 230.995 786.367 221.744 787.125 211.438C787.255 209.781 787.255 209.781 787.387 208.092C787.597 205.395 787.799 202.698 788 200C783.38 200 778.76 200 774 200C774 199.34 774 198.68 774 198C774.999 197.867 775.998 197.734 777.027 197.598C778.318 197.421 779.608 197.244 780.938 197.062C782.225 196.888 783.513 196.714 784.84 196.535C787.855 196.338 787.855 196.338 789 195Z" fill="#416DB0"/>
<path id="Vector_5" d="M236 234C239.271 234.236 240.168 235.176 242.48 237.598C243.397 238.742 244.298 239.897 245.188 241.062C245.667 241.683 246.146 242.304 246.639 242.943C254.106 252.868 261.666 264.967 265 277C264.617 279.328 264.617 279.328 264 281C262.662 278.377 261.437 275.739 260.301 273.023C256.6 264.327 252.836 256.498 247 249C245.579 247.045 244.162 245.086 242.75 243.125C240.521 240.067 238.277 237.022 236 234Z" fill="#3E8BC0"/>
<path id="Vector_6" d="M179 266C181.59 268.576 184.158 271.164 186.691 273.797C196.647 284.094 207.457 292.084 220 299C219.34 299.66 218.68 300.32 218 301C203.498 294.271 188.085 282.249 179 269C179 268.01 179 267.02 179 266Z" fill="#3E8CC0"/>
<path id="Vector_7" d="M849 397C849.66 397.33 850.32 397.66 851 398C840.764 407.896 821.202 421.81 806.312 422.062C805.219 422.042 804.126 422.021 803 422C805.702 420.199 808.097 419.2 811.14 418.149C825.08 413.306 837.37 406.043 849 397Z" fill="#4166AA"/>
<path id="Vector_8" d="M681 110C680.86 113.188 680.712 116.375 680.562 119.563C680.523 120.458 680.484 121.353 680.443 122.275C680.207 127.246 679.802 132.088 679 137C678.01 136.67 677.02 136.34 676 136C676.66 128.08 677.32 120.16 678 112C675.36 112.33 672.72 112.66 670 113C668.334 113.059 666.667 113.089 665 113.063C664.237 113.053 663.474 113.044 662.688 113.035C661.852 113.018 661.852 113.018 661 113C661 112.67 661 112.34 661 112C667.761 109.887 673.944 108.377 681 110Z" fill="#356FAD"/>
<path id="Vector_9" d="M796 651C798.523 654.143 800.304 657.41 802.125 661C807.676 671.424 814.991 680.358 823 689C821.515 689.495 821.515 689.495 820 690C796 664.422 796 664.422 796 651Z" fill="#4160A3"/>
<path id="Vector_10" d="M824 599C837.128 600.45 848.895 613.298 857.438 622.676C857.953 623.443 858.469 624.21 859 625C858.505 626.485 858.505 626.485 858 628C857.273 627.166 856.546 626.332 855.797 625.473C846.895 615.439 837.508 607.74 825.766 601.094C825.183 600.733 824.6 600.372 824 600C824 599.67 824 599.34 824 599Z" fill="#4262A8"/>
<path id="Vector_11" d="M832 543C832 543.33 832 543.66 832 544C819.317 548.657 804.241 547.64 791 546C791 545.34 791 544.68 791 544C795.392 543.856 799.785 543.713 804.177 543.573C805.668 543.525 807.159 543.476 808.649 543.427C816.434 543.171 824.209 542.93 832 543Z" fill="#4667AC"/>
<path id="Vector_12" d="M749 650C751.691 654.037 752.128 656.977 752.098 661.766C752.094 662.655 752.091 663.545 752.088 664.461C752.08 665.381 752.071 666.302 752.062 667.25C752.058 668.186 752.053 669.122 752.049 670.086C752.037 672.391 752.021 674.695 752 677C748.71 678.097 747.339 677.906 744 677.25C742.701 677.01 742.701 677.01 741.375 676.766C739 676 739 676 736 673C742.93 673.495 742.93 673.495 750 674C749.835 671.896 749.67 669.792 749.5 667.625C749.075 661.734 748.878 655.904 749 650Z" fill="#3F62A6"/>
<path id="Vector_13" d="M97 394C97.6748 394.51 97.6748 394.51 98.3633 395.031C100.57 396.694 102.784 398.349 105 400C106.284 400.957 106.284 400.957 107.594 401.934C115.991 408.123 124.296 414.077 134 418C134.66 418.66 135.32 419.32 136 420C121.904 418.714 106.119 406.385 97 396C97 395.34 97 394.68 97 394Z" fill="#3E8ABF"/>
<path id="Vector_14" d="M787 588C788.168 591.619 787.962 594.847 787.812 598.625C787.603 607.64 789.123 616.355 790.665 625.213C790.849 626.293 791.033 627.372 791.223 628.484C791.482 629.934 791.482 629.934 791.746 631.413C791.994 633.939 791.792 635.61 791 638C787.863 631.044 786.871 625.627 787 618C786.01 617.67 785.02 617.34 784 617C784.66 617 785.32 617 786 617C785.992 615.842 785.992 615.842 785.984 614.661C785.963 611.17 785.95 607.679 785.938 604.188C785.929 602.973 785.921 601.758 785.912 600.506C785.909 599.342 785.906 598.179 785.902 596.98C785.897 595.907 785.892 594.833 785.886 593.727C786 591 786 591 787 588Z" fill="#3D5A9D"/>
<path id="Vector_15" d="M323 462C323.66 462 324.32 462 325 462C325.66 467.94 326.32 473.88 327 480C323.052 481.316 319.612 480.726 315.562 480.25C314.799 480.175 314.035 480.1 313.248 480.023C309.035 479.539 306.165 479.072 303 476C310.166 475.719 316.945 476.796 324 478C323.835 477.031 323.67 476.061 323.5 475.062C322.866 470.705 322.91 466.394 323 462Z" fill="#346CAA"/>
<path id="Vector_16" d="M54 298C55.32 298 56.64 298 58 298C57.9768 299.027 57.9536 300.055 57.9297 301.113C57.775 310.948 58.6401 319.826 61.125 329.375C61.8667 332.448 62.1956 334.871 62 338C61.34 338 60.68 338 60 338C59.3503 335.313 58.7051 332.626 58.0625 329.938C57.7889 328.809 57.7889 328.809 57.5098 327.658C55.9114 320.945 54.8597 314.491 54.9375 307.562C54.9465 306.512 54.9555 305.461 54.9648 304.379C54.9764 303.594 54.988 302.809 55 302C54.34 301.67 53.68 301.34 53 301C53.33 300.01 53.66 299.02 54 298Z" fill="#3E8BBC"/>
<path id="Vector_17" d="M411 310C421.375 314.155 427.91 330.978 432.219 340.77C433.104 343.297 433.152 345.341 433 348C430.701 345.701 430.182 344.041 429.062 341C426.696 335.161 423.719 329.874 420.438 324.5C419.966 323.723 419.495 322.945 419.01 322.145C416.627 318.304 414.277 315.146 411 312C411 311.34 411 310.68 411 310Z" fill="#3C79B5"/>
<path id="Vector_18" d="M120 316C132.151 317.477 143.695 330.695 152 339C151.67 339.99 151.34 340.98 151 342C150.368 341.322 149.737 340.644 149.086 339.945C141.521 332.075 133.399 325.804 124.249 319.863C122.818 318.931 121.407 317.968 120 317C120 316.67 120 316.34 120 316Z" fill="#4090C3"/>
<path id="Vector_19" d="M729 403C729.33 403 729.66 403 730 403C729.507 408.412 728.08 412.54 725.438 417.312C725.085 417.962 724.733 418.611 724.371 419.28C721.591 424.263 718.373 428.702 714.664 433.047C712.847 435.102 712.847 435.102 711 438C710.01 437.67 709.02 437.34 708 437C708.762 436.074 708.762 436.074 709.539 435.129C717.807 424.957 723.69 414.924 729 403Z" fill="#3F67AA"/>
<path id="Vector_20" d="M372 362C372.762 362.447 373.524 362.895 374.309 363.355C376.464 364.617 378.621 365.875 380.781 367.129C382.641 368.21 384.498 369.298 386.344 370.402C392.594 374.052 399.209 376.533 406 379C406 379.33 406 379.66 406 380C400.899 380.379 397.782 379.229 393.25 376.938C391.194 375.902 389.115 374.909 387 374C386.01 374.495 386.01 374.495 385 375C385 374.01 385 373.02 385 372C384.34 371.773 383.68 371.546 383 371.312C380.429 370.188 378.1 368.985 375.688 367.562C374.99 367.151 374.293 366.74 373.574 366.316C373.055 365.882 372.535 365.448 372 365C372 364.01 372 363.02 372 362Z" fill="#3786BE"/>
<path id="Vector_21" d="M877 359C877.66 359 878.32 359 879 359C878.43 363.624 876.447 367.15 874.062 371.062C873.67 371.714 873.278 372.365 872.873 373.035C868.842 379.547 864.092 385.291 859 391C858.01 390.67 857.02 390.34 856 390C856.557 389.429 857.114 388.858 857.688 388.27C865.887 379.558 871.918 369.799 877 359Z" fill="#4165A9"/>
<path id="Vector_22" d="M161 230C163.13 233.194 164.23 236.152 165.562 239.75C168.078 246.345 171.293 252.23 175.104 258.163C178 262.717 178 262.717 178 266C173.246 261.826 170.663 257.164 167.812 251.562C167.156 250.312 167.156 250.312 166.486 249.037C163.203 242.696 160.653 237.288 161 230Z" fill="#408DC0"/>
<path id="Vector_23" d="M597 140C597.99 140.33 598.98 140.66 600 141C599.394 141.51 598.788 142.021 598.164 142.547C588.943 150.548 581.123 159.387 575 170C574.258 168.352 574.258 168.352 574 166C575.555 163.336 575.555 163.336 577.875 160.375C578.283 159.852 578.69 159.33 579.11 158.791C590.368 144.536 590.368 144.536 597 140Z" fill="#3E7BB7"/>
<path id="Vector_24" d="M690 651C693.086 652.418 695.851 654.188 698.671 656.073C705.837 660.85 713.053 664.634 721 668C721 668.33 721 668.66 721 669C714.652 668.567 710.377 667.048 704.938 663.812C704.24 663.408 703.543 663.004 702.824 662.588C698.109 659.801 693.843 656.939 690 653C690 652.34 690 651.68 690 651Z" fill="#4161A7"/>
<path id="Vector_25" d="M717 313C717 313.99 717 314.98 717 316C693.546 325.663 693.546 325.663 682 325C684.682 323.568 687.171 322.594 690.125 321.887C690.909 321.693 691.693 321.499 692.501 321.3C693.325 321.098 694.15 320.896 695 320.688C702.688 318.747 709.806 316.375 717 313Z" fill="#3F6DB0"/>
<path id="Vector_26" d="M315 208C318.924 209.393 321.941 211.26 325.312 213.688C332.425 218.545 340.045 221.769 348 225C348 225.33 348 225.66 348 226C341.855 226.747 337.766 224.181 332.562 221.312C331.742 220.877 330.922 220.442 330.076 219.994C316.573 212.72 316.573 212.72 315 208Z" fill="#3E87BF"/>
<path id="Vector_27" d="M489 129C493.156 130.385 494.044 133.183 495.938 136.875C496.289 137.551 496.641 138.227 497.004 138.924C504.837 154.258 504.837 154.258 504 162C502.032 159.048 501.013 156.51 499.812 153.188C497.43 146.85 494.56 140.91 491.453 134.898C490 132 490 132 489 129Z" fill="#3B7CB6"/>
<path id="Vector_28" d="M888 320C888.33 320 888.66 320 889 320C889.583 328.169 889.056 335.18 886.75 343C886.545 343.705 886.341 344.41 886.13 345.136C884.704 349.666 882.802 353.168 880 357C879.67 356.34 879.34 355.68 879 355C879.681 353.078 880.448 351.187 881.25 349.312C885.046 339.813 886.602 330.122 888 320Z" fill="#4065A9"/>
<path id="Vector_29" d="M439 373C439.33 373 439.66 373 440 373C441.469 378.233 442.106 382.518 442 388C439.77 387.885 437.541 387.758 435.312 387.625C434.071 387.555 432.83 387.486 431.551 387.414C428.307 387.036 425.934 386.38 423 385C423 384.67 423 384.34 423 384C428.28 384 433.56 384 439 384C439 380.37 439 376.74 439 373Z" fill="#3D77B5"/>
<path id="Vector_30" d="M265 107C267.133 107.203 269.258 107.488 271.375 107.812C272.538 107.984 273.7 108.155 274.898 108.332C278 109 278 109 281 111C276.71 110.67 272.42 110.34 268 110C267.67 114.62 267.34 119.24 267 124C264.669 120.504 264.593 118.523 264.312 114.375C264.226 113.207 264.14 112.039 264.051 110.836C264.034 109.9 264.017 108.964 264 108C264.33 107.67 264.66 107.34 265 107Z" fill="#3E8BBA"/>
<path id="Vector_31" d="M203 498C211.262 499.064 218.01 509.985 222.918 516.09C223.454 517.035 223.454 517.035 224 518C223.67 518.99 223.34 519.98 223 521C222.01 521 221.02 521 220 521C219.856 520.237 219.711 519.474 219.562 518.688C219.037 515.918 219.037 515.918 218 513C217.34 513 216.68 513 216 513C214.484 511.496 214.484 511.496 212.75 509.438C212.135 508.714 211.52 507.991 210.887 507.246C210.264 506.505 209.641 505.764 209 505C207.855 503.666 206.71 502.332 205.562 501C204.717 500.01 203.871 499.02 203 498Z" fill="#3D81BB"/>
<path id="Vector_32" d="M244 443C244.887 443.784 245.774 444.567 246.688 445.375C250.248 448.426 253.917 451.32 257.625 454.188C258.175 454.615 258.725 455.043 259.292 455.484C262.416 457.885 265.578 460.047 269 462C267.02 462.99 267.02 462.99 265 464C264.636 463.606 264.273 463.211 263.898 462.805C260.805 459.864 257.33 457.398 253.914 454.848C250.333 452.137 246.982 449.385 244 446C244 445.01 244 444.02 244 443Z" fill="#3E7EBB"/>
<path id="Vector_33" d="M168 631C168.66 631 169.32 631 170 631C168.679 641.218 159.38 650.33 153 658C152.01 657.67 151.02 657.34 150 657C150.825 656.072 151.65 655.144 152.5 654.188C158.631 647.011 164.098 639.617 168 631Z" fill="#3F7EB8"/>
<path id="Vector_34" d="M720 506C724.07 509.451 728.062 512.961 732 516.562C735.833 520.032 739.715 523.112 744 526C743.01 526.33 742.02 526.66 741 527C733.121 522.635 725.692 515.951 720 509C720 508.01 720 507.02 720 506Z" fill="#4165AA"/>
<path id="Vector_35" d="M308 421C311 422 311 422 312.043 423.579C312.35 424.248 312.657 424.916 312.973 425.605C313.315 426.342 313.657 427.079 314.01 427.838C314.357 428.613 314.705 429.389 315.062 430.188C315.589 431.322 315.589 431.322 316.127 432.479C319.165 439.1 321.297 444.586 321 452C318.502 449.502 318.229 447.652 317.312 444.25C315.37 437.625 312.606 431.873 309.391 425.801C308 423 308 423 308 421Z" fill="#3C7BB8"/>
<path id="Vector_36" d="M547.168 286.41C547.773 286.605 548.377 286.799 549 287C548.287 287.485 547.574 287.969 546.84 288.469C540.702 292.764 535.609 297.085 531 303C530.01 302.67 529.02 302.34 528 302C530.319 296.475 540.587 285.165 547.168 286.41Z" fill="#3C77B6"/>
<path id="Vector_37" d="M284 393C291.213 394.069 295.589 400.775 300 406C300.825 406.908 301.65 407.815 302.5 408.75C304 411 304 411 303.594 413.141C303.398 413.754 303.202 414.368 303 415C301.704 413.42 300.413 411.836 299.125 410.25C298.406 409.368 297.686 408.487 296.945 407.578C295 405 295 405 293.93 402.734C293.062 400.639 293.062 400.639 290 400C290 399.34 290 398.68 290 398C289.381 397.732 288.762 397.464 288.125 397.188C286 396 286 396 284 393Z" fill="#3E80BE"/>
<path id="Vector_38" d="M453 261C456.116 263.948 458.59 267.062 461.062 270.562C463.692 274.319 463.692 274.319 466.746 277.715C468 279 468 279 468 281C469.32 281.66 470.64 282.32 472 283C470.68 283.33 469.36 283.66 468 284C467.67 283.01 467.34 282.02 467 281C466.34 281 465.68 281 465 281C462.922 278.791 461.219 276.264 459.438 273.812C458.677 272.802 458.677 272.802 457.9 271.771C455.32 268.25 453.357 265.487 453 261Z" fill="#3F75B8"/>
<path id="Vector_39" d="M81 516C85.7409 518.131 89.8964 521.253 94.1602 524.191C98.6166 527.214 103.14 529.678 108 532C108 532.66 108 533.32 108 534C98.1836 531.019 88.4309 525.112 81 518C81 517.34 81 516.68 81 516Z" fill="#3E84BA"/>
<path id="Vector_40" d="M884 696C884.33 696 884.66 696 885 696C887.894 713.186 887.894 713.186 886 721C882.625 720.453 880.918 719.945 878 718C879.98 718 881.96 718 884 718C884 710.74 884 703.48 884 696Z" fill="#3D569D"/>
<path id="Vector_41" d="M244 585C244.66 585.33 245.32 585.66 246 586C245.42 586.883 244.84 587.766 244.242 588.676C239.492 595.956 235.017 603.281 231 611C230.312 609.387 230.312 609.387 230 607C233.307 598.873 238.342 591.655 244 585Z" fill="#3C77B4"/>
<path id="Vector_42" d="M546 382C527.531 391.656 527.531 391.656 519 391C520 389 520 389 523.352 387.816C524.774 387.391 526.198 386.973 527.625 386.562C531.817 385.339 535.866 384.114 539.836 382.277C543 381 543 381 546 382Z" fill="#3D70B2"/>
<path id="Vector_43" d="M637 206C635.675 209.085 634.473 210.681 631.664 212.508C631.012 212.937 630.36 213.366 629.688 213.809C629.007 214.243 628.326 214.677 627.625 215.125C626.616 215.788 626.616 215.788 625.586 216.465C616.869 222.145 616.869 222.145 613.75 221.625C613.173 221.419 612.595 221.212 612 221C612.906 220.504 613.812 220.007 614.746 219.496C621.349 215.83 627.526 212.136 633.328 207.25C635 206 635 206 637 206Z" fill="#3C75B4"/>
<path id="Vector_44" d="M109 605C109.99 605.33 110.98 605.66 112 606C106.72 611.28 101.44 616.56 96 622C95.67 621.01 95.34 620.02 95 619C96.579 617.225 98.1629 615.455 99.75 613.688C100.193 613.188 100.637 612.688 101.094 612.174C105.963 606.767 105.963 606.767 109 605Z" fill="#4184BE"/>
<path id="Vector_45" d="M873 484C878.065 484.472 881.187 486.982 885.125 489.938C886.357 490.843 887.588 491.748 888.82 492.652C889.87 493.427 890.919 494.202 892 495C892.99 495.66 893.98 496.32 895 497C895 497.66 895 498.32 895 499C891.262 497.656 888.326 495.967 885.125 493.625C881.192 490.805 877.25 488.31 873 486C873 485.34 873 484.68 873 484Z" fill="#4263A7"/>
<path id="Vector_46" d="M691 561C696.951 561.362 700.336 564.039 704.875 567.562C705.563 568.083 706.252 568.603 706.961 569.139C708.648 570.416 710.325 571.707 712 573C711.67 573.99 711.34 574.98 711 576C710.227 575.408 709.453 574.817 708.656 574.207C701.625 568.858 701.625 568.858 694.25 564C693.178 563.34 692.105 562.68 691 562C691 561.67 691 561.34 691 561Z" fill="#4063AB"/>
<path id="Vector_47" d="M698 238C698.99 238.33 699.98 238.66 701 239C700.42 239.69 699.84 240.379 699.242 241.09C694.452 246.853 689.994 252.657 686 259C685.34 257.68 684.68 256.36 684 255C684.552 254.479 685.103 253.958 685.672 253.422C688.45 250.532 690.835 247.444 693.25 244.25C693.709 243.648 694.168 243.046 694.641 242.426C695.763 240.953 696.882 239.477 698 238Z" fill="#3D74B5"/>
<path id="Vector_48" d="M812 337C812.99 337.33 813.98 337.66 815 338C814.039 338.926 814.039 338.926 813.059 339.871C807.544 345.271 802.549 350.764 798 357C797.67 356.01 797.34 355.02 797 354C798.66 351.512 798.66 351.512 801.062 348.688C801.887 347.716 802.713 346.744 803.562 345.742C806.272 342.694 809.042 339.806 812 337Z" fill="#4068AC"/>
<path id="Vector_49" d="M661 389C661.99 389.33 662.98 389.66 664 390C663.01 390.33 662.02 390.66 661 391C660.67 391.99 660.34 392.98 660 394C658.357 395.69 656.685 397.352 655 399C653.45 400.763 651.936 402.552 650.43 404.352C649.019 405.978 647.54 407.496 646 409C646.442 404.139 648.851 401.25 651.938 397.688C652.393 397.138 652.849 396.588 653.318 396.021C654.494 394.636 655.742 393.312 657 392C657.66 392 658.32 392 659 392C659 391.34 659 390.68 659 390C659.66 389.67 660.32 389.34 661 389Z" fill="#3D69AC"/>
<path id="Vector_50" d="M311 596C312.207 599.531 312.057 599.883 310.27 603.531C309.463 604.862 308.644 606.185 307.812 607.5C307.412 608.164 307.012 608.828 306.6 609.512C304.387 613.105 302.162 616.151 299 619C298.34 618.67 297.68 618.34 297 618C297.592 617.166 298.183 616.332 298.793 615.473C303.237 609.16 307.462 602.88 311 596Z" fill="#3D74B3"/>
<path id="Vector_51" d="M216 522C216.66 522.33 217.32 522.66 218 523C214.54 527.022 210.564 528.985 205.875 531.25C205.147 531.614 204.418 531.977 203.668 532.352C198.281 535 198.281 535 196 535C196 534.34 196 533.68 196 533C197.109 532.457 198.217 531.915 199.359 531.355C200.823 530.633 202.287 529.91 203.75 529.188C204.48 528.831 205.209 528.475 205.961 528.107C209.559 526.325 212.896 524.589 216 522Z" fill="#4083BC"/>
<path id="Vector_52" d="M472 108C475.452 109.426 477.101 111.097 479.25 114.125C479.771 114.849 480.292 115.574 480.828 116.32C481.408 117.152 481.408 117.152 482 118C481.01 118.495 481.01 118.495 480 119C478.886 117.793 478.886 117.793 477.75 116.562C474.772 113.705 474.772 113.705 471 113C469 114.179 469 114.179 467.25 115.938C466.33 116.786 466.33 116.786 465.391 117.652C464.702 118.319 464.702 118.319 464 119C465.473 113.991 468.275 111.482 472 108Z" fill="#407FB5"/>
<path id="Vector_53" d="M258 648C250.4 653.149 243.042 654.51 234 654C237.379 651.748 240.623 650.908 244.5 649.937C255.42 647.14 255.42 647.14 258 648Z" fill="#3B76B3"/>
<path id="Vector_54" d="M569 366C566.931 370.884 563.507 372.617 559.125 375.312C558.404 375.78 557.684 376.247 556.941 376.729C555.891 377.383 555.891 377.383 554.82 378.051C553.865 378.649 553.865 378.649 552.891 379.259C550.54 380.18 549.341 379.826 547 379C547.773 378.564 548.547 378.129 549.344 377.68C555.007 374.441 560.398 371.17 565.477 367.066C567 366 567 366 569 366Z" fill="#3D6FB2"/>
<path id="Vector_55" d="M269 137C271.304 140.456 272.369 143.945 273.562 147.875C273.784 148.583 274.005 149.29 274.232 150.02C275.353 153.657 276.344 157.243 277 161C276.34 161 275.68 161 275 161C274.185 158.918 273.373 156.834 272.562 154.75C272.11 153.59 271.658 152.43 271.191 151.234C269.339 146.205 268.896 142.398 269 137Z" fill="#3E8BBE"/>
<path id="Vector_56" d="M179 387C179.66 387 180.32 387 181 387C181.277 387.843 181.554 388.686 181.84 389.555C182.202 390.65 182.564 391.746 182.938 392.875C183.297 393.966 183.657 395.056 184.027 396.18C184.899 398.908 184.899 398.908 186 401C185.913 402.546 185.76 404.089 185.562 405.625C185.461 406.442 185.359 407.26 185.254 408.102C185.17 408.728 185.086 409.355 185 410C184.67 410 184.34 410 184 410C179.592 394.255 179.592 394.255 179 387Z" fill="#3992C4"/>
<path id="Vector_57" d="M730 597C735.448 598.816 737.49 605.091 740 610C740.905 612.37 741.491 614.51 742 617C741.01 617 740.02 617 739 617C738.769 616.371 738.539 615.742 738.301 615.094C736.308 609.865 734.103 605.224 730.953 600.594C730 599 730 599 730 597Z" fill="#4062AA"/>
<path id="Vector_58" d="M666 168C666.613 169.791 666.613 169.791 667 172C665.652 174.507 664.295 176.735 662.688 179.062C662.27 179.687 661.853 180.312 661.424 180.955C660.294 182.644 659.147 184.323 658 186C657.34 186.99 656.68 187.98 656 189C655.01 188.67 654.02 188.34 653 188C653.905 186.714 653.905 186.714 654.828 185.402C658.803 179.726 662.727 174.119 666 168Z" fill="#3A72B2"/>
<path id="Vector_59" d="M670 629C672.686 631.579 675.205 634.289 677.688 637.062C678.289 637.734 678.891 638.406 679.512 639.098C681 641 681 641 682 644C682.99 644.33 683.98 644.66 685 645C683.68 645.33 682.36 645.66 681 646C679.342 644.114 677.699 642.217 676.062 640.312C675.36 639.517 675.36 639.517 674.643 638.705C671.946 635.543 670.365 633.181 670 629Z" fill="#3E67A9"/>
<path id="Vector_60" d="M64 345C67.1186 346.559 67.695 349.658 68.9375 352.75C70.6756 357.035 72.5011 361.091 75 365C74.34 365.66 73.68 366.32 73 367C71.6774 364.463 70.3668 361.921 69.0625 359.375C68.6893 358.662 68.3161 357.949 67.9316 357.215C65.8522 353.131 64.4601 349.63 64 345Z" fill="#408EBF"/>
<path id="Vector_61" d="M324 545C324.114 551.766 323.88 558.288 323 565C322.67 565 322.34 565 322 565C320.929 558.974 320.901 553.111 321 547C321.66 546.67 322.32 546.34 323 546C320.36 546 317.72 546 315 546C315 545.67 315 545.34 315 545C321.75 543.875 321.75 543.875 324 545Z" fill="#478AC6"/>
<path id="Vector_62" d="M324 462C324.33 462 324.66 462 325 462C325.66 467.94 326.32 473.88 327 480C324.061 480.98 322.942 481.038 319.988 480.66C319.231 480.567 318.474 480.473 317.693 480.377C316.908 480.273 316.122 480.169 315.312 480.062C314.515 479.963 313.718 479.863 312.896 479.76C310.93 479.513 308.965 479.257 307 479C307 478.67 307 478.34 307 478C312.94 478.33 318.88 478.66 325 479C324.67 473.39 324.34 467.78 324 462Z" fill="#4F92CC"/>
<path id="Vector_63" d="M595 229C594.67 229.99 594.34 230.98 594 232C587.897 234.943 581.653 235.322 575 235C577.843 232.157 581.202 231.771 585 230.875C585.737 230.693 586.475 230.511 587.234 230.324C592.691 229 592.691 229 595 229Z" fill="#3E78B8"/>
<path id="Vector_64" d="M841 319C837.903 321.38 834.714 323.561 831.438 325.687C830.487 326.31 829.537 326.933 828.559 327.574C826 329 826 329 823 329C827.62 323.947 833.621 317.847 841 319Z" fill="#4269AE"/>
<path id="Vector_65" d="M359 151C364.172 155.687 367.989 161.317 372 167C371.01 167.33 370.02 167.66 369 168C368.169 166.844 368.169 166.844 367.32 165.664C366.596 164.661 365.871 163.658 365.125 162.625C364.406 161.627 363.686 160.63 362.945 159.602C361.101 157.005 361.101 157.005 359 155C359 153.68 359 152.36 359 151Z" fill="#4089C2"/>
<path id="Vector_66" d="M786 586C789.63 586.33 793.26 586.66 797 587C797 587.33 797 587.66 797 588C796.043 588.073 796.043 588.073 795.066 588.148C794.24 588.223 793.414 588.298 792.562 588.375C791.739 588.445 790.915 588.514 790.066 588.586C789.384 588.723 788.703 588.859 788 589C786.882 591.236 786.806 592.649 786.684 595.133C786.621 596.341 786.621 596.341 786.557 597.574C786.517 598.416 786.478 599.258 786.438 600.125C786.394 600.974 786.351 601.824 786.307 602.699C786.2 604.799 786.1 606.9 786 609C785.67 609 785.34 609 785 609C784.971 605.917 784.953 602.833 784.938 599.75C784.929 598.877 784.921 598.005 784.912 597.105C784.909 596.261 784.906 595.417 784.902 594.547C784.894 593.384 784.894 593.384 784.886 592.198C785 590 785 590 786 586Z" fill="#4D7EBB"/>
<path id="Vector_67" d="M488 392C488.66 392 489.32 392 490 392C490 392.66 490 393.32 490 394C494.62 394 499.24 394 504 394C499.959 396.694 498.19 397.118 493.375 397.062C492.372 397.053 491.369 397.044 490.336 397.035C489.565 397.024 488.794 397.012 488 397C488 395.35 488 393.7 488 392Z" fill="#3B6EB0"/>
<path id="Vector_68" d="M153 343C157.114 344.532 159.274 347.465 161.812 350.875C162.442 351.67 162.442 351.67 163.084 352.48C166.057 356.428 166.057 356.428 165.762 359.383C165.51 359.916 165.259 360.45 165 361C164.553 360.276 164.105 359.551 163.645 358.805C160.364 353.559 157.054 348.669 153 344C153 343.67 153 343.34 153 343Z" fill="#3A8ABF"/>
<path id="Vector_69" d="M682 457C682.66 457.33 683.32 457.66 684 458C681.655 460.613 679.249 462.107 676.125 463.688C675.282 464.124 674.439 464.561 673.57 465.012C670.849 466.058 668.888 466.191 666 466C668.212 462.682 668.69 462.523 672.312 461.5C675.923 460.409 678.769 458.958 682 457Z" fill="#3F66AB"/>
<path id="Vector_70" d="M501 242C501.33 242 501.66 242 502 242C501.705 249.658 498.628 255.343 495 262C494.34 262 493.68 262 493 262C494.451 257.421 496.206 253.024 498.125 248.625C498.402 247.984 498.679 247.344 498.965 246.684C499.641 245.121 500.32 243.561 501 242Z" fill="#3B74B3"/>
<path id="Vector_71" d="M156 196C158.44 196.255 160.876 196.528 163.312 196.812C164.003 196.883 164.693 196.953 165.404 197.025C168.428 197.391 170.561 197.651 172.98 199.574C173.317 200.045 173.653 200.515 174 201C167.987 200.421 161.991 199.777 156 199C156 198.01 156 197.02 156 196Z" fill="#4392BF"/>
<path id="Vector_72" d="M653 114C650.293 116.707 647.737 117.101 644.062 118.125C642.816 118.478 641.569 118.831 640.285 119.195C637 120 637 120 634 120C634 119.34 634 118.68 634 118C646.485 113.408 646.485 113.408 653 114Z" fill="#417DB8"/>
<path id="Vector_73" d="M652 589C653.665 591.497 654.447 593.024 655.289 595.793C655.508 596.505 655.727 597.217 655.953 597.951C656.175 598.689 656.397 599.427 656.625 600.188C656.854 600.937 657.084 601.687 657.32 602.459C657.885 604.305 658.443 606.152 659 608C658.01 608 657.02 608 656 608C651.408 595.515 651.408 595.515 652 589Z" fill="#3E61A7"/>
<path id="Vector_74" d="M321 558C321.33 558 321.66 558 322 558C322.318 565.728 322.323 571.939 319 579C318.67 579 318.34 579 318 579C318.706 571.941 319.782 564.988 321 558Z" fill="#3972B0"/>
<path id="Vector_75" d="M681 110C680.67 116.6 680.34 123.2 680 130C679.67 130 679.34 130 679 130C679 123.73 679 117.46 679 111C675.37 111 671.74 111 668 111C668 110.67 668 110.34 668 110C673.056 109.229 675.852 108.97 681 110Z" fill="#4689BF"/>
<path id="Vector_76" d="M714 577C717.668 578.503 719.689 580.637 722.25 583.625C722.956 584.442 723.663 585.26 724.391 586.102C724.922 586.728 725.453 587.355 726 588C725.67 588.99 725.34 589.98 725 591C723.161 589.047 721.328 587.088 719.5 585.125C718.975 584.569 718.451 584.014 717.91 583.441C714 579.227 714 579.227 714 577Z" fill="#4164AA"/>
<path id="Vector_77" d="M625 460C625.66 460 626.32 460 627 460C627.33 463.96 627.66 467.92 628 472C630.31 472.33 632.62 472.66 635 473C635 473.33 635 473.66 635 474C631.7 474 628.4 474 625 474C625 469.38 625 464.76 625 460Z" fill="#3E63A8"/>
<path id="Vector_78" d="M642 411C642.66 411 643.32 411 644 411C642.334 417.164 639.122 422.483 636 428C635.285 426.422 635.285 426.422 635 424C636.057 421.615 637.132 419.488 638.438 417.25C638.776 416.648 639.114 416.046 639.463 415.426C640.298 413.944 641.147 412.471 642 411Z" fill="#3E69AD"/>
<path id="Vector_79" d="M388 213C391.172 217.758 391.125 221.657 391.063 227.188C391.058 227.937 391.054 228.687 391.049 229.459C391.037 231.306 391.019 233.153 391 235C390.67 235 390.34 235 390 235C389.661 232.647 389.329 230.292 389 227.938C388.857 226.952 388.857 226.952 388.711 225.947C388.111 221.599 387.909 217.387 388 213Z" fill="#3676B0"/>
<path id="Vector_80" d="M699 445C699.66 445 700.32 445 701 445C699.533 448.557 697.629 450.442 694.625 452.812C693.854 453.438 693.083 454.063 692.289 454.707C690 456 690 456 687.711 455.699C687.146 455.468 686.582 455.238 686 455C686.771 454.446 687.542 453.891 688.336 453.32C689.339 452.596 690.342 451.871 691.375 451.125C692.373 450.406 693.37 449.686 694.398 448.945C696.995 447.101 696.995 447.101 699 445Z" fill="#3F67AB"/>
<path id="Vector_81" d="M171 369C171.66 369 172.32 369 173 369C174.033 371.098 175.051 373.204 176.062 375.312C176.915 377.07 176.915 377.07 177.785 378.863C179 382 179 382 178 385C176.251 382.376 174.803 379.805 173.375 377C172.929 376.134 172.483 375.267 172.023 374.375C171 372 171 372 171 369Z" fill="#3C8AC1"/>
<path id="Vector_82" d="M267 292C267.66 292 268.32 292 269 292C269.883 296.518 270.106 300.775 270.063 305.375C270.053 306.62 270.044 307.865 270.035 309.148C270.024 310.089 270.012 311.03 270 312C269.67 312 269.34 312 269 312C267.58 305.217 266.773 298.933 267 292Z" fill="#3D85BB"/>
<path id="Vector_83" d="M805 591C810.905 591.388 815.758 592.161 821 595C821.33 595.99 821.66 596.98 822 598C816.278 596.132 810.623 594.147 805 592C805 591.67 805 591.34 805 591Z" fill="#4265A8"/>
<path id="Vector_84" d="M258 570C258.99 570.33 259.98 570.66 261 571C260.34 571 259.68 571 259 571C259 571.66 259 572.32 259 573C257.391 574.656 257.391 574.656 255.25 576.5C254.554 577.108 253.858 577.717 253.141 578.344C251.155 579.88 249.281 580.972 247 582C249.839 577.23 253.155 572.889 258 570Z" fill="#3C7DB6"/>
<path id="Vector_85" d="M651 546C653.898 546.391 653.898 546.391 657.375 547.25C658.517 547.523 659.659 547.797 660.836 548.078C663.455 548.841 665.634 549.671 668 551C660.375 552.25 660.375 552.25 657 550C654.954 549.338 654.954 549.338 652.812 548.875C651.554 548.586 650.296 548.298 649 548C649.66 547.34 650.32 546.68 651 546Z" fill="#457CBA"/>
<path id="Vector_86" d="M284 470C290.011 471.63 296.017 473.271 302 475C302 475.33 302 475.66 302 476C295.481 476.474 290.654 475.39 285 472C284.67 471.34 284.34 470.68 284 470Z" fill="#3D79B6"/>
<path id="Vector_87" d="M507 214C507.33 214 507.66 214 508 214C508.211 221.044 508.08 227.241 506 234C505.34 234 504.68 234 504 234C504.774 227.292 505.858 220.654 507 214Z" fill="#3A73B3"/>
<path id="Vector_88" d="M825 692C828.283 693.491 830.931 695.386 833.75 697.625C834.949 698.572 834.949 698.572 836.172 699.539C836.775 700.021 837.378 700.503 838 701C837.01 701.33 836.02 701.66 835 702C832.773 700.672 832.773 700.672 830.375 698.75C829.578 698.126 828.782 697.502 827.961 696.859C826 695 826 695 825 692Z" fill="#415EA2"/>
<path id="Vector_89" d="M287 628C287.66 628 288.32 628 289 628C287.506 631.807 285.381 633.498 282.062 635.812C281.187 636.438 280.312 637.063 279.41 637.707C278.217 638.347 278.217 638.347 277 639C276.01 638.67 275.02 638.34 274 638C275.282 637.043 275.282 637.043 276.59 636.066C277.706 635.232 278.822 634.397 279.938 633.562C280.783 632.931 280.783 632.931 281.646 632.287C284.429 630.269 284.429 630.269 287 628Z" fill="#3B72B1"/>
<path id="Vector_90" d="M678.188 377.398C678.786 377.597 679.384 377.795 680 378C678.236 379.342 676.463 380.673 674.688 382C673.701 382.742 672.715 383.485 671.699 384.25C669 386 669 386 666 386C672.907 376.437 672.907 376.437 678.188 377.398Z" fill="#3E69AF"/>
<path id="Vector_91" d="M347 336C351.218 339.97 354.612 344.308 358 349C357.67 349.66 357.34 350.32 357 351C355.509 349.449 354.033 347.884 352.562 346.312C351.739 345.442 350.915 344.572 350.066 343.676C347.97 340.961 347.334 339.366 347 336Z" fill="#3B78B5"/>
<path id="Vector_92" d="M839 703C840.32 703 841.64 703 843 703C843 703.66 843 704.32 843 705C843.908 705.268 844.815 705.536 845.75 705.812C848.715 706.896 850.617 707.984 853 710C847.293 709.534 843.841 708.062 839 705C839 704.34 839 703.68 839 703Z" fill="#425CA1"/>
<path id="Vector_93" d="M659 610C661.59 613.205 663.379 616.554 665.188 620.25C665.717 621.328 666.247 622.405 666.793 623.516C667.191 624.335 667.59 625.155 668 626C664.096 624.699 663.726 623.254 661.812 619.688C661.283 618.722 660.753 617.756 660.207 616.762C659 614 659 614 659 610Z" fill="#3C5EA3"/>
<path id="Vector_94" d="M125.152 594.398C125.762 594.597 126.372 594.795 127 595C125.236 596.342 123.463 597.673 121.688 599C120.701 599.743 119.715 600.485 118.699 601.25C116 603 116 603 113 603C121.941 593.804 121.941 593.804 125.152 594.398Z" fill="#3E83BC"/>
<path id="Vector_95" d="M632 472C635.63 472 639.26 472 643 472C643 472.66 643 473.32 643 474C634.09 474.99 634.09 474.99 625 476C625 475.34 625 474.68 625 474C628.465 473.505 628.465 473.505 632 473C632 472.67 632 472.34 632 472Z" fill="#4670B3"/>
<path id="Vector_96" d="M781 388C782.324 391.973 781.181 394.81 780.063 398.688C779.867 399.389 779.672 400.091 779.471 400.814C778.988 402.545 778.495 404.273 778 406C777.67 406 777.34 406 777 406C776.627 399.029 777.854 394.292 781 388Z" fill="#3C63A7"/>
<path id="Vector_97" d="M501 336C501.66 336 502.32 336 503 336C501.132 341.722 499.147 347.377 497 353C496.67 353 496.34 353 496 353C496.307 346.378 497.743 341.779 501 336Z" fill="#3E71B1"/>
<path id="Vector_98" d="M743 298C741.688 301.935 739.04 303.749 735.852 306.145C733.505 307.229 732.383 306.856 730 306C731.787 304.661 733.58 303.329 735.375 302C736.373 301.257 737.37 300.515 738.398 299.75C741 298 741 298 743 298Z" fill="#3D6CAD"/>
<path id="Vector_99" d="M296 191C299.452 192.477 301.65 194.438 304.25 197.125C304.956 197.849 305.663 198.574 306.391 199.32C307.187 200.152 307.187 200.152 308 201C307.01 201.33 306.02 201.66 305 202C303.494 200.548 301.995 199.088 300.5 197.625C299.247 196.407 299.247 196.407 297.969 195.164C296 193 296 193 296 191Z" fill="#3E88BE"/>
<path id="Vector_100" d="M883 685C885.428 689.857 886.12 692.833 886.062 698.188C886.053 699.274 886.044 700.361 886.035 701.48C886.024 702.312 886.012 703.143 886 704C885.67 704 885.34 704 885 704C884.67 701.69 884.34 699.38 884 697C883.67 697 883.34 697 883 697C883 693.04 883 689.08 883 685Z" fill="#4561A7"/>
<path id="Vector_101" d="M677 272C678.328 275.985 677.232 277.4 675.563 281.188C675.089 282.274 674.616 283.361 674.129 284.48C673.57 285.728 673.57 285.728 673 287C672.67 287 672.34 287 672 287C671.439 281.39 673.205 277.703 676 273C676.33 272.67 676.66 272.34 677 272Z" fill="#3D6DAF"/>
<path id="Vector_102" d="M765 274C765.33 274.99 765.66 275.98 766 277C764.348 279.48 764.348 279.48 762.062 282.188C761.311 283.089 760.559 283.99 759.785 284.918C759.196 285.605 758.607 286.292 758 287C757.01 286.67 756.02 286.34 755 286C758.3 282.04 761.6 278.08 765 274Z" fill="#3A6DAD"/>
<path id="Vector_103" d="M451 135C451.66 135 452.32 135 453 135C451.333 140 449.667 145 448 150C447.34 150 446.68 150 446 150C446.481 144.226 448.185 140.041 451 135Z" fill="#3D7DB6"/>
<path id="Vector_104" d="M461 120C461.99 120.33 462.98 120.66 464 121C460.733 125.389 457.451 129.753 454 134C454.56 130.01 455.757 127.474 458.062 124.188C458.884 123.002 458.884 123.002 459.723 121.793C460.355 120.905 460.355 120.905 461 120Z" fill="#3B7AB2"/>
<path id="Vector_105" d="M894 510C894.66 510 895.32 510 896 510C894.758 513.726 893.16 514.804 890.125 517.25C888.799 518.341 888.799 518.341 887.445 519.453C886.638 519.964 885.831 520.474 885 521C884.01 520.67 883.02 520.34 882 520C883.174 519.043 883.174 519.043 884.371 518.066C885.383 517.24 886.395 516.414 887.438 515.562C888.447 514.739 889.456 513.915 890.496 513.066C892.298 511.588 892.298 511.588 894 510Z" fill="#405FA3"/>
<path id="Vector_106" d="M748 486C742.555 489.96 742.555 489.96 737 494C736.34 493.67 735.68 493.34 735 493C743.022 484.755 743.022 484.755 748 486Z" fill="#3F65AA"/>
<path id="Vector_107" d="M875.688 305.937C876.681 305.947 877.675 305.956 878.699 305.965C879.838 305.982 879.838 305.982 881 306C877.518 308.051 874.227 308.568 870.25 309.125C869.08 309.293 867.909 309.46 866.703 309.633C865.811 309.754 864.919 309.875 864 310C867.556 306.106 870.557 305.877 875.688 305.937Z" fill="#3E6AAA"/>
<path id="Vector_108" d="M726 219C724.399 220.15 722.794 221.295 721.188 222.437C719.848 223.395 719.848 223.395 718.48 224.371C716 226 716 226 713 227C714.312 223.065 716.96 221.251 720.148 218.855C722.495 217.771 723.617 218.144 726 219Z" fill="#3D71B1"/>
<path id="Vector_109" d="M175 615C175.33 615 175.66 615 176 615C175.503 620.661 174.455 624.877 172 630C171.34 630 170.68 630 170 630C170.627 626.338 171.645 623.118 173.062 619.688C173.606 618.363 173.606 618.363 174.16 617.012C174.437 616.348 174.714 615.684 175 615Z" fill="#3E7FB9"/>
<path id="Vector_110" d="M275 561C269.555 564.96 269.555 564.96 264 569C263.34 568.67 262.68 568.34 262 568C270.022 559.755 270.022 559.755 275 561Z" fill="#3D78B7"/>
<path id="Vector_111" d="M180 539C180 539.66 180 540.32 180 541C176.538 542.067 173.36 542.102 169.75 542.063C168.672 542.054 167.595 542.044 166.484 542.035C165.665 542.024 164.845 542.012 164 542C164 541.67 164 541.34 164 541C169.38 539.809 174.453 538.708 180 539Z" fill="#3E84BF"/>
<path id="Vector_112" d="M619 128C617.235 129.175 615.463 130.34 613.688 131.5C612.701 132.15 611.715 132.799 610.699 133.469C608 135 608 135 605 135C613.289 126.237 613.289 126.237 619 128Z" fill="#3D79B4"/>
<path id="Vector_113" d="M775 407C775.33 407 775.66 407 776 407C776 413.93 776 420.86 776 428C775.01 427.67 774.02 427.34 773 427C773.66 420.4 774.32 413.8 775 407Z" fill="#4F7EBC"/>
<path id="Vector_114" d="M225 302C229.62 303.65 234.24 305.3 239 307C239 307.33 239 307.66 239 308C234.029 307.588 229.555 307.204 225 305C225 304.01 225 303.02 225 302Z" fill="#4086BF"/>
<path id="Vector_115" d="M54 298C55.32 298 56.64 298 58 298C57.34 303.28 56.68 308.56 56 314C55.67 314 55.34 314 55 314C55 310.04 55 306.08 55 302C54.34 301.67 53.68 301.34 53 301C53.33 300.01 53.66 299.02 54 298Z" fill="#4393C1"/>
<path id="Vector_116" d="M393 375C397.609 375.72 401.672 377.313 406 379C406 379.33 406 379.66 406 380C400.768 380.383 397.622 379.219 393 377C393 376.34 393 375.68 393 375Z" fill="#3C76B5"/>
<path id="Vector_117" d="M589 345C589.33 345.99 589.66 346.98 590 348C588.566 350.043 588.566 350.043 586.562 352.188C585.904 352.903 585.245 353.618 584.566 354.355C583.791 355.17 583.791 355.17 583 356C582.01 355.67 581.02 355.34 580 355C582.97 351.7 585.94 348.4 589 345Z" fill="#3C6FB1"/>
<path id="Vector_118" d="M888 303C889.32 303 890.64 303 892 303C891.67 306.63 891.34 310.26 891 314C890.67 314 890.34 314 890 314C890 311.36 890 308.72 890 306C887.36 306 884.72 306 882 306C882 305.67 882 305.34 882 305C883.98 305 885.96 305 888 305C888 304.34 888 303.68 888 303Z" fill="#3859A2"/>
<path id="Vector_119" d="M225 416C228.285 418.792 230.013 422.232 232 426C232 426.66 232 427.32 232 428C228.337 426.779 227.65 425.133 225.77 421.887C225 420 225 420 225 416Z" fill="#3D7FB9"/>
<path id="Vector_120" d="M491 264C491.33 264.99 491.66 265.98 492 267C490.566 269.262 490.566 269.262 488.562 271.688C487.904 272.496 487.245 273.304 486.566 274.137C486.049 274.752 485.533 275.366 485 276C484.34 275.67 483.68 275.34 483 275C485.64 271.37 488.28 267.74 491 264Z" fill="#3971B1"/>
<path id="Vector_121" d="M776 255C776.66 255 777.32 255 778 255C777.47 259.508 775.748 262.42 773 266C772.34 266 771.68 266 771 266C772.45 262.209 774.152 258.613 776 255Z" fill="#3F6AAC"/>
<path id="Vector_122" d="M610 223C610 223.66 610 224.32 610 225C601.738 229.592 601.738 229.592 597 229C600.595 225.98 605.186 223 610 223Z" fill="#3B74B4"/>
<path id="Vector_123" d="M895 500C897.962 500.613 899.381 501.254 902 503C901 505 900 507 899 509C898.01 508.67 897.02 508.34 896 508C896.66 506.68 897.32 505.36 898 504C897.01 502.68 896.02 501.36 895 500Z" fill="#4160A1"/>
<path id="Vector_124" d="M629 444C629.33 444 629.66 444 630 444C629.885 445.751 629.758 447.501 629.625 449.25C629.555 450.225 629.486 451.199 629.414 452.203C629.015 454.896 628.365 456.67 627 459C626.946 457.25 626.907 455.5 626.875 453.75C626.84 452.288 626.84 452.288 626.805 450.797C627.001 447.98 627.554 446.391 629 444Z" fill="#3A61A7"/>
<path id="Vector_125" d="M277 162C280.285 164.792 282.013 168.232 284 172C284 172.66 284 173.32 284 174C281 173 281 173 279.832 171.258C279.496 170.554 279.159 169.85 278.812 169.125C278.468 168.426 278.124 167.728 277.77 167.008C277 165 277 165 277 162Z" fill="#3F88BD"/>
<path id="Vector_126" d="M722 669C723.418 669.285 724.834 669.578 726.25 669.875C727.039 670.037 727.828 670.2 728.641 670.367C730.968 670.992 732.89 671.848 735 673C729.664 673.271 726.386 673.427 722 670C722 669.67 722 669.34 722 669Z" fill="#3C63A4"/>
<path id="Vector_127" d="M91 624C91.99 624.33 92.98 624.66 94 625C93.0445 626.46 92.0855 627.918 91.125 629.375C90.5913 630.187 90.0577 630.999 89.5078 631.836C88 634 88 634 86 636C86.4761 631.001 88.0316 628.022 91 624Z" fill="#4082B9"/>
<path id="Vector_128" d="M860 629C864.065 630.355 864.973 632.308 867 636C866.609 638.199 866.609 638.199 866 640C864.994 638.546 863.996 637.086 863 635.625C862.165 634.407 862.165 634.407 861.312 633.164C860 631 860 631 860 629Z" fill="#3D5CA3"/>
<path id="Vector_129" d="M146 585C143.229 588.81 139.371 589.068 135 590C135 589.34 135 588.68 135 588C138.858 585.847 141.551 584.607 146 585Z" fill="#3C82BC"/>
<path id="Vector_130" d="M847 540C842.437 543.533 838.504 543.324 833 543C833 542.67 833 542.34 833 542C834.768 541.469 836.539 540.95 838.312 540.437C839.299 540.147 840.285 539.857 841.301 539.559C844 539 844 539 847 540Z" fill="#4164A8"/>
<path id="Vector_131" d="M789 626C791.391 629.825 791.56 633.597 792 638C789.989 636.601 789.104 635.444 788.543 633.055C788.273 631.046 788.13 629.022 788 627C788.33 626.67 788.66 626.34 789 626Z" fill="#405FA5"/>
<path id="Vector_132" d="M678 555C682.056 555.468 685.466 555.88 689 558C689 558.66 689 559.32 689 560C684.872 559.393 681.668 557.962 678 556C678 555.67 678 555.34 678 555Z" fill="#4165AC"/>
<path id="Vector_133" d="M105 477C104.34 477 103.68 477 103 477C103 477.66 103 478.32 103 479C97.555 479.99 97.555 479.99 92 481C93 479 93 479 94.9609 478.113C95.7576 477.849 96.5542 477.585 97.375 477.312C98.1665 477.04 98.958 476.769 99.7734 476.488C102 476 102 476 105 477Z" fill="#4298C5"/>
<path id="Vector_134" d="M179 387C179.66 387 180.32 387 181 387C182.316 390.62 183 393.096 183 397C182.34 397 181.68 397 181 397C179.396 393.492 178.78 390.856 179 387Z" fill="#408AC0"/>
<path id="Vector_135" d="M852 475C859.75 475.875 859.75 475.875 862 477C861.67 477.99 861.34 478.98 861 480C856.545 478.02 856.545 478.02 852 476C852 475.67 852 475.34 852 475Z" fill="#4263A9"/>
<path id="Vector_136" d="M802 422C800.037 424.048 798.572 424.95 795.73 425.199C793.48 425.189 791.246 425.13 789 425C793.276 422.149 796.932 421.855 802 422Z" fill="#3D5FA5"/>
<path id="Vector_137" d="M607 312C607.66 312.33 608.32 312.66 609 313C608.435 316.958 607.191 319.666 605 323C604.34 322.67 603.68 322.34 603 322C604.32 318.7 605.64 315.4 607 312Z" fill="#3B6EB0"/>
<path id="Vector_138" d="M738 212C736.545 212.838 735.086 213.671 733.625 214.5C732.407 215.196 732.407 215.196 731.164 215.906C729 217 729 217 727 217C727 216.34 727 215.68 727 215C733.964 210.58 733.964 210.58 738 212Z" fill="#3E6FAF"/>
<path id="Vector_139" d="M472 110C477.011 111.432 478.945 113.984 482 118C481.01 118.495 481.01 118.495 480 119C479.257 118.237 478.515 117.474 477.75 116.688C475.574 114.561 473.478 112.744 471 111C471.33 110.67 471.66 110.34 472 110Z" fill="#3A77B0"/>
<path id="Vector_140" d="M271 641C270 644 270 644 268.25 645.188C265.7 646.108 263.691 646.149 261 646C267.364 641 267.364 641 271 641Z" fill="#3A79B1"/>
<path id="Vector_141" d="M518 392C514.796 394.136 513.981 394.231 510.312 394.125C509.1 394.098 509.1 394.098 507.863 394.07C506.941 394.036 506.941 394.036 506 394C509.362 390.638 513.604 390.478 518 392Z" fill="#3A6BAC"/>
<path id="Vector_142" d="M787 373C787.33 373.66 787.66 374.32 788 375C787.223 377.164 787.223 377.164 786.062 379.625C785.682 380.442 785.302 381.26 784.91 382.102C784.61 382.728 784.309 383.355 784 384C783.67 384 783.34 384 783 384C783.438 379.443 783.85 376.423 787 373Z" fill="#3B62A7"/>
<path id="Vector_143" d="M601 327C601.75 328.625 601.75 328.625 602 331C600.188 334.25 600.188 334.25 598 337C597.34 337 596.68 337 596 337C597.335 333.406 598.96 330.245 601 327Z" fill="#3A6DB0"/>
<path id="Vector_144" d="M523 304C523.99 304.33 524.98 304.66 526 305C523.69 307.64 521.38 310.28 519 313C518.67 312.01 518.34 311.02 518 310C519.404 307.736 521.197 305.979 523 304Z" fill="#3971B2"/>
<path id="Vector_145" d="M342.059 268.953C343.236 269.1 343.236 269.1 344.438 269.25C345.611 269.381 345.611 269.381 346.809 269.516C349 270 349 270 352 272C350.68 272.33 349.36 272.66 348 273C348 272.34 348 271.68 348 271C347.278 271.186 346.556 271.371 345.812 271.562C342.872 272.02 340.859 271.735 338 271C340 269 340 269 342.059 268.953Z" fill="#4294C9"/>
<path id="Vector_146" d="M771 200C768.263 202.737 765.74 203.162 762 204C759.562 203.625 759.562 203.625 758 203C762.554 200.334 765.739 199.684 771 200Z" fill="#3D6BAC"/>
<path id="Vector_147" d="M872 651C872.99 651 873.98 651 875 651C876.604 654.508 877.22 657.144 877 661C874.355 657.875 873.156 654.912 872 651Z" fill="#405DA4"/>
<path id="Vector_148" d="M858 536C855.449 538.354 854.29 538.983 850.75 539.187C849.842 539.126 848.935 539.064 848 539C849 537 849 537 852.438 535.812C856 535 856 535 858 536Z" fill="#4163A4"/>
<path id="Vector_149" d="M656 469C654.292 471.106 653.479 471.938 650.738 472.293C649.938 472.258 649.137 472.223 648.312 472.187C647.1 472.147 647.1 472.147 645.863 472.105C644.941 472.053 644.941 472.053 644 472C648.141 469.858 651.311 468.873 656 469Z" fill="#3D64A9"/>
<path id="Vector_150" d="M81 376C85.2295 377.41 86.0821 380.164 88 384C85.2454 383.62 84.1798 383.193 82.25 381.125C81 379 81 379 81 376Z" fill="#3D8CBF"/>
<path id="Vector_151" d="M434 351C434.66 351 435.32 351 436 351C437.158 354.473 437.069 357.361 437 361C436.34 360.67 435.68 360.34 435 360C434.586 357.934 434.586 357.934 434.375 355.438C434.3 354.611 434.225 353.785 434.148 352.934C434.099 352.296 434.05 351.657 434 351Z" fill="#3C76B5"/>
<path id="Vector_152" d="M666 168C666.75 169.562 666.75 169.562 667 172C665.869 174.503 664.479 176.67 663 179C662.25 177.438 662.25 177.438 662 175C663.131 172.497 664.521 170.33 666 168Z" fill="#3E79B8"/>
<path id="Vector_153" d="M855 711C859.219 711.479 861.797 712.166 865 715C862.36 714.67 859.72 714.34 857 714C857 713.34 857 712.68 857 712C856.34 711.67 855.68 711.34 855 711Z" fill="#405A9C"/>
<path id="Vector_154" d="M303 610C303.33 610.99 303.66 611.98 304 613C302.596 615.264 300.803 617.021 299 619C298.34 618.67 297.68 618.34 297 618C298.98 615.36 300.96 612.72 303 610Z" fill="#396DAD"/>
<path id="Vector_155" d="M749 530C752.775 531.091 755.47 531.908 758 535C752.484 534.387 752.484 534.387 750.125 532.5C749 531 749 531 749 530Z" fill="#4062A7"/>
<path id="Vector_156" d="M868 529C868.66 529.33 869.32 529.66 870 530C867.47 533.092 864.775 533.909 861 535C861 534.34 861 533.68 861 533C866.273 529.777 866.273 529.777 868 529Z" fill="#4261A6"/>
<path id="Vector_157" d="M235 432C237.964 434.808 240.445 437.183 242 441C239.14 439.718 236.93 438.508 235 436C235 434.68 235 433.36 235 432Z" fill="#3781B9"/>
<path id="Vector_158" d="M785 424C787.64 424.33 790.28 424.66 793 425C793 425.33 793 425.66 793 426C788.947 426.982 785.161 427.082 781 427C782.32 426.67 783.64 426.34 785 426C785 425.34 785 424.68 785 424Z" fill="#487DBC"/>
<path id="Vector_159" d="M735 382C735.33 382 735.66 382 736 382C736.369 389.508 736.369 389.508 734.5 392C733.757 392.495 733.757 392.495 733 393C733.875 385.375 733.875 385.375 735 382Z" fill="#3A61A6"/>
<path id="Vector_160" d="M717 313C717 313.99 717 314.98 717 316C713.865 317.858 711.625 318.201 708 318C710.853 315.675 713.541 314.249 717 313Z" fill="#3B68AC"/>
<path id="Vector_161" d="M727 309C727 309.66 727 310.32 727 311C720.25 315 720.25 315 718 315C719 312 719 312 721.938 310.312C725 309 725 309 727 309Z" fill="#426EB5"/>
<path id="Vector_162" d="M682 260C682.66 260 683.32 260 684 260C682.844 263.912 681.645 266.875 679 270C678.636 265.758 679.461 263.418 682 260Z" fill="#3D6CAC"/>
<path id="Vector_163" d="M707 230C707.66 230.33 708.32 230.66 709 231C704.25 235.875 704.25 235.875 702 237C702.398 234.114 702.79 233.178 705.062 231.25C705.702 230.837 706.341 230.425 707 230Z" fill="#3D6FB0"/>
<path id="Vector_164" d="M787 218C787.33 218 787.66 218 788 218C788 221.63 788 225.26 788 229C787.01 229 786.02 229 785 229C785.66 225.37 786.32 221.74 787 218Z" fill="#3C6BAA"/>
<path id="Vector_165" d="M677 126C679.108 130.216 679.177 132.398 679 137C678.01 136.67 677.02 136.34 676 136C676.33 132.7 676.66 129.4 677 126Z" fill="#3C78B2"/>
<path id="Vector_166" d="M295 620C295.33 620.99 295.66 621.98 296 623C294.68 624.32 293.36 625.64 292 627C291.01 626.67 290.02 626.34 289 626C290.98 624.02 292.96 622.04 295 620Z" fill="#3C71B1"/>
<path id="Vector_167" d="M775 425C778.3 425 781.6 425 785 425C781 427 781 427 779 427C778.67 427.66 778.34 428.32 778 429C778 428.34 778 427.68 778 427C777.01 427 776.02 427 775 427C775 426.34 775 425.68 775 425Z" fill="#3560AC"/>
<path id="Vector_168" d="M407 380C411.95 380.99 411.95 380.99 417 382C417 382.66 417 383.32 417 384C413.397 384.412 412.216 384.154 409.188 382C408.466 381.34 407.744 380.68 407 380Z" fill="#3C76B5"/>
<path id="Vector_169" d="M372 362C375.96 364.475 375.96 364.475 380 367C377 368 377 368 374.312 366.75C373.549 366.173 372.786 365.595 372 365C372 364.01 372 363.02 372 362Z" fill="#3D77B5"/>
<path id="Vector_170" d="M507 325C507.66 325 508.32 325 509 325C507.909 328.775 507.092 331.47 504 334C504.498 330.265 504.875 328.188 507 325Z" fill="#3D72B3"/>
<path id="Vector_171" d="M397 297C400.688 297.498 402.605 298.101 405 301C404.67 301.99 404.34 302.98 404 304C402.83 303.024 401.664 302.044 400.5 301.062C399.85 300.517 399.201 299.972 398.531 299.41C398.026 298.945 397.521 298.479 397 298C397 297.67 397 297.34 397 297Z" fill="#3B7CB9"/>
<path id="Vector_172" d="M671 288C672.601 292.002 671.293 295.046 670 299C669.67 299 669.34 299 669 299C668.75 291.375 668.75 291.375 671 288Z" fill="#3C6DAF"/>
<path id="Vector_173" d="M481 277C481.33 277.99 481.66 278.98 482 280C479.03 282.475 479.03 282.475 476 285C476.542 281.204 478.201 279.528 481 277Z" fill="#3E7AB8"/>
<path id="Vector_174" d="M866 715C870.056 715.468 873.466 715.88 877 718C869.492 718.369 869.492 718.369 867 716.5C866.67 716.005 866.34 715.51 866 715Z" fill="#3D579A"/>
<path id="Vector_175" d="M746 674C747.32 674 748.64 674 750 674C750.33 675.32 750.66 676.64 751 678C748.03 677.505 748.03 677.505 745 677C745.33 676.01 745.66 675.02 746 674Z" fill="#4263A7"/>
<path id="Vector_176" d="M770 539C774.95 539.99 774.95 539.99 780 541C780 541.33 780 541.66 780 542C778.721 542.062 777.443 542.124 776.125 542.188C775.406 542.222 774.686 542.257 773.945 542.293C773.303 542.196 772.661 542.1 772 542C771.34 541.01 770.68 540.02 770 539Z" fill="#3F5FA5"/>
<path id="Vector_177" d="M111 534C114.3 534.99 117.6 535.98 121 537C121 537.33 121 537.66 121 538C118.25 538.25 118.25 538.25 115 538C112.625 536 112.625 536 111 534Z" fill="#3D81BB"/>
<path id="Vector_178" d="M75 367C78.2542 369.834 79.5207 371.686 80 376C76.7458 373.166 75.4793 371.314 75 367Z" fill="#438DC0"/>
<path id="Vector_179" d="M863 310C860.238 312.762 857.793 312.579 854 313C854 312.34 854 311.68 854 311C857.196 309.935 859.657 309.926 863 310Z" fill="#4067AB"/>
<path id="Vector_180" d="M388 290C391.375 290.547 393.082 291.055 396 293C395.67 293.99 395.34 294.98 395 296C393.831 295.192 392.664 294.378 391.5 293.562C390.85 293.11 390.201 292.658 389.531 292.191C389.026 291.798 388.521 291.405 388 291C388 290.67 388 290.34 388 290Z" fill="#387CB6"/>
<path id="Vector_181" d="M393 232C394 236 394 236 394 236L393 232Z" fill="#35C9E9"/>
<path id="Vector_182" d="M604 495C607 496 607 496 607 496L604 495Z" fill="#1CD4F0"/>
<path id="Vector_183" d="M345 495C348 496 348 496 348 496L345 495Z" fill="#547FD4"/>
<path id="Vector_184" d="M241 368C244 369 244 369 244 369L241 368Z" fill="#00FFFF"/>
<path id="Vector_185" d="M784 620C786 621 786 621 786 621L784 620Z" fill="#3F3FBF"/>
<path id="Vector_186" d="M567 614C569 615 569 615 569 615L567 614Z" fill="#0000FF"/>
<path id="Vector_187" d="M817 592C819 593 819 593 819 593L817 592Z" fill="#0000FF"/>
<path id="Vector_188" d="M304 545C306 546 306 546 306 546L304 545Z" fill="#00FFFF"/>
<path id="Vector_189" d="M766 541C768 542 768 542 768 542L766 541Z" fill="#3F3FBF"/>
<path id="Vector_190" d="M104 534C106 535 106 535 106 535L104 534Z" fill="#00FFFF"/>
<path id="Vector_191" d="M580 495C582 496 582 496 582 496L580 495Z" fill="#007FFF"/>
<path id="Vector_192" d="M131 421C133 422 133 422 133 422L131 421Z" fill="#3FBFFF"/>
<path id="Vector_193" d="M830 413C832 414 832 414 832 414L830 413Z" fill="#0000FF"/>
<path id="Vector_194" d="M269 317C271 318 271 318 271 318L269 317Z" fill="#3FBFFF"/>
<path id="Vector_195" d="M72 297C74 298 74 298 74 298L72 297Z" fill="#2AD4D4"/>
<path id="Vector_196" d="M569 272C571 273 571 273 571 273L569 272Z" fill="#3FBFFF"/>
<path id="Vector_197" d="M183 200C185 201 185 201 185 201L183 200Z" fill="#7F7FFF"/>
<path id="Vector_198" d="M345 136C347 137 347 137 347 137L345 136Z" fill="#00FFFF"/>
</g>
</svg>
